# xmcd CD database file
#
# Track frame offsets:
#	150
#	21614
#	34848
#	50531
#	62800
#	78401
#	97408
#	111818
#	123543
#	141636
#	153788
#	183734
#	195315
#	207812
#	221044
#	234846
#	246682
#	257343
#	269339
#	281918
#
# Disc length: 3936 seconds
#
# Revision: 0
# Processed by: cddbd v1.5.2PL0 Copyright (c) Steve Scherf et al.
# Submitted via: CDex 1.70beta2
#
DISCID=3a0f5e14
DTITLE=Various Artist - The Blues Collection/Standing At The Crossroads
DYEAR=2008
DGENRE=Blues
TTITLE0=Hide And Go Seek/Big Joe Turner
TTITLE1=When A Woman Loves A Man/Dinah Washington
TTITLE2=Standing At The Crossroads/Elmore James
TTITLE3=Everybody Step/Ella Fitzgerald
TTITLE4=Blue Moon/Billie Holliday
TTITLE5=Trouble I Had All My Days/Mississippi John Hurt
TTITLE6=I Know How To Do It/Dinah Washington
TTITLE7=Take A Swing At Me/B.B. King
TTITLE8=Stardust/Ella Fitzgerald
TTITLE9=My Baby's So Sweet/Jimmy Reed
TTITLE10=Stormy Monday Blues/Big Joe Turner
TTITLE11=Nobody Loves Me/Memphis Slim 
TTITLE12=Shame, Shame, Shame/Jimmy Reed
TTITLE13=St. Louis Blues/Billie Holliday
TTITLE14=They Call It Stormy Monday/T-Bone Walker
TTITLE15=Ride In My New Car With Me Blues/Big Joe Williams
TTITLE16=Oh John/Jimmy Reed
TTITLE17=I Hear Music/Billie Holliday
TTITLE18=I Can't Get Started/Dinah Washington
TTITLE19=Little White Lies/Ella Fitzgerald
EXTD=YEAR: 2008
EXTT0=
EXTT1=
EXTT2=
EXTT3=
EXTT4=
EXTT5=
EXTT6=
EXTT7=
EXTT8=
EXTT9=
EXTT10=
EXTT11=
EXTT12=
EXTT13=
EXTT14=
EXTT15=
EXTT16=
EXTT17=
EXTT18=
EXTT19=
PLAYORDER=
